<?xml version="1.0" encoding="utf-8"?>
<!-- Generator: Adobe Illustrator 23.0.1, SVG Export Plug-In . SVG Version: 6.00 Build 0)  -->
<svg version="1.1" id="Laag_1" xmlns="http://www.w3.org/2000/svg" xmlns:xlink="http://www.w3.org/1999/xlink" x="0px" y="0px"
	 viewBox="0 0 1920 718" style="enable-background:new 0 0 1920 718;" xml:space="preserve">
<style type="text/css">
	.st0{fill:#D0D5EE;fill-opacity:0.17;}
</style>
<path class="st0" d="M1490.6,101.7l162.3-43.5c10.7-2.9,21.6,3.5,24.5,14.1l45.6,170c2.9,10.7-3.5,21.6-14.1,24.5l-162.3,43.5
	c-10.7,2.9-21.6-3.5-24.5-14.1l-45.6-170C1473.6,115.5,1479.9,104.5,1490.6,101.7z"/>
<path class="st0" d="M211.9,405.9l207.9,50.2c10.7,2.6,17.3,13.4,14.7,24.1l-52.5,217.4c-2.6,10.7-13.4,17.3-24.1,14.7l-207.9-50.2
	c-10.7-2.6-17.3-13.4-14.7-24.1l52.5-217.4C190.4,409.9,201.2,403.3,211.9,405.9z"/>
<path class="st0" d="M221,192.5l194.1,112.1c9.6,5.5,12.8,17.8,7.3,27.3L305.3,534.8c-5.5,9.6-17.8,12.8-27.3,7.3L83.8,430
	c-9.6-5.5-12.8-17.8-7.3-27.3l117.2-202.9C199.2,190.2,211.4,186.9,221,192.5z"/>
<path class="st0" d="M1461.3,7.9L1575.2,57c10.1,4.4,14.8,16.1,10.5,26.3l-51.6,119.7c-4.4,10.1-16.1,14.8-26.3,10.5l-113.9-49.1
	c-10.1-4.4-14.8-16.1-10.5-26.3L1435,18.4C1439.4,8.2,1451.2,3.5,1461.3,7.9z"/>
<path class="st0" d="M1674.6,310.9l34.8,15c10.1,4.4,14.8,16.1,10.5,26.3l-16.2,37.5c-4.4,10.1-16.1,14.8-26.3,10.5l-34.8-15
	c-10.1-4.4-14.8-16.1-10.5-26.3l16.2-37.5C1652.7,311.2,1664.5,306.5,1674.6,310.9z"/>
</svg>
