<svg width="170" height="36" viewBox="0 0 170 36" fill="none" xmlns="http://www.w3.org/2000/svg">
<path d="M0 18C0 8.05887 8.05887 0 18 0C27.9411 0 36 8.05887 36 18C36 27.9411 27.9411 36 18 36C8.05887 36 0 27.9411 0 18Z" fill="#9779EE"/>
<path fill-rule="evenodd" clip-rule="evenodd" d="M18.0002 6.34104e-08C18.0001 6.34104e-08 18.0001 0 18 0C8.05887 0 0 8.05887 0 18C0 27.9411 8.05887 36 18 36C18.0001 36 18.0001 36 18.0002 36C18.0001 36 18.0001 36 18.0001 36C10.459 24.8026 14.4064 20.8 18.1742 16.9796C21.8259 13.2768 25.309 9.74516 18.0002 6.34104e-08Z" fill="#56C2FF"/>
<path d="M56.5742 25H53.8496V14.418H50.3604V12.1504H60.0635V14.418H56.5742V25ZM71.2414 25H63.841V12.1504H71.2414V14.3828H66.5656V17.2041H70.9162V19.4365H66.5656V22.75H71.2414V25ZM83.5971 25L82.6654 21.9414H77.9809L77.0492 25H74.1137L78.6488 12.0977H81.9799L86.5326 25H83.5971ZM82.015 19.6562C81.1537 16.8848 80.6674 15.3174 80.5561 14.9541C80.4506 14.5908 80.3744 14.3037 80.3275 14.0928C80.1342 14.8428 79.5805 16.6973 78.6664 19.6562H82.015ZM95.399 25L92.3053 14.9189H92.2262C92.3375 16.9697 92.3932 18.3379 92.3932 19.0234V25H89.9586V12.1504H93.6676L96.7086 21.9766H96.7613L99.9869 12.1504H103.696V25H101.156V18.918C101.156 18.6309 101.159 18.2998 101.165 17.9248C101.176 17.5498 101.217 16.5537 101.288 14.9365H101.209L97.8951 25H95.399ZM108.739 12.1504H112.738C114.56 12.1504 115.882 12.4111 116.702 12.9326C117.528 13.4482 117.941 14.2715 117.941 15.4023C117.941 16.1699 117.76 16.7998 117.396 17.292C117.039 17.7842 116.561 18.0801 115.964 18.1797V18.2676C116.778 18.4492 117.364 18.7891 117.721 19.2871C118.085 19.7852 118.266 20.4473 118.266 21.2734C118.266 22.4453 117.842 23.3594 116.992 24.0156C116.148 24.6719 115 25 113.547 25H108.739V12.1504ZM111.464 17.2393H113.046C113.784 17.2393 114.317 17.125 114.645 16.8965C114.979 16.668 115.146 16.29 115.146 15.7627C115.146 15.2705 114.965 14.9189 114.601 14.708C114.244 14.4912 113.676 14.3828 112.896 14.3828H111.464V17.2393ZM111.464 19.4014V22.75H113.239C113.989 22.75 114.543 22.6064 114.9 22.3193C115.258 22.0322 115.436 21.5928 115.436 21.001C115.436 19.9346 114.675 19.4014 113.151 19.4014H111.464ZM133.092 12.1504V20.4648C133.092 21.4141 132.878 22.2461 132.45 22.9609C132.028 23.6758 131.416 24.2236 130.613 24.6045C129.811 24.9854 128.861 25.1758 127.766 25.1758C126.113 25.1758 124.83 24.7539 123.916 23.9102C123.002 23.0605 122.545 21.9004 122.545 20.4297V12.1504H125.261V20.0166C125.261 21.0068 125.46 21.7334 125.858 22.1963C126.257 22.6592 126.916 22.8906 127.836 22.8906C128.727 22.8906 129.371 22.6592 129.77 22.1963C130.174 21.7275 130.376 20.9951 130.376 19.999V12.1504H133.092ZM138.038 25V12.1504H140.763V25H138.038ZM145.797 25V12.1504H148.522V22.75H153.734V25H145.797ZM168.436 18.4521C168.436 20.5674 167.833 22.1875 166.626 23.3125C165.424 24.4375 163.687 25 161.414 25H157.775V12.1504H161.809C163.907 12.1504 165.536 12.7041 166.696 13.8115C167.856 14.9189 168.436 16.4658 168.436 18.4521ZM165.606 18.5225C165.606 15.7627 164.387 14.3828 161.95 14.3828H160.5V22.75H161.669C164.294 22.75 165.606 21.3408 165.606 18.5225Z" fill="white"/>
</svg>
